@startuml
'https://plantuml.com/class-diagram
interface Group

interface ImportSelector {
  String[] selectImports(AnnotationMetadata importingClassMetadata)
}
interface DeferredImportSelector {
  Class<? extends Group> getImportGroup()
}

ImportSelector <|-- DeferredImportSelector

abstract class AbstractList
abstract AbstractCollection
interface List
interface Collection

List <|-- AbstractList
Collection <|-- AbstractCollection

Collection <|- List
AbstractCollection <|- AbstractList
AbstractList <|-- ArrayList

class ArrayList {
Object[] elementData
size()
}

enum TimeUnit {
DAYS
HOURS
MINUTES
}

@enduml